# xmcd CD database file
#
# Track frame offsets:
#	150
#	14035
#	26295
#	38185
#	49275
#	62602
#	74305
#	87425
#	100179
#	113430
#	126617
#	137330
#	149592
#	163255
#	177047
#	188385
#	200257
#	212045
#	225652
#	238682
#	250782
#	264172
#	278797
#	292600
#	304892
#	318987
#
# Disc length: 4444 seconds
#
# Revision: 5
# Processed by: cddbd v1.5.1PL0 Copyright (c) Steve Scherf et al.
# Submitted via: CDex 1.51
#
DISCID=6d115a1a
DTITLE=Les Paul - Isle of Golden Dreams, #1
DYEAR=2004
DGENRE=Jazz
TTITLE0=New Dupree Blues
TTITLE1=Daddy Let Me Lay It On You
TTITLE2=I Just Want Your Stingaree
TTITLE3=Black Rider
TTITLE4=I'll Keep Sittin' On It (If I Can't Sell It)
TTITLE5=Trouble In Mind
TTITLE6=Just Because
TTITLE7=Just Because Answer
TTITLE8=Deep Elem Blues #2
TTITLE9=Deep Elem Blues
TTITLE10=Cindy
TTITLE11=Flipino Hombre
TTITLE12=Dream Dust
TTITLE13=Begin The Beguine (1)
TTITLE14=Dark Eyes
TTITLE15=Blues Skies (1)
TTITLE16=Blues Skies (2)
TTITLE17=Begin The Beguine (2)
TTITLE18=Dream Dust (2)
TTITLE19=Dark Eyes (2)
TTITLE20=It's Been A Long, Long Time
TTITLE21=Whose Dream Are You?
TTITLE22=Hawaiian Paradise
TTITLE23=My Isle Of Gloden Dreams
TTITLE24=Spellbound
TTITLE25=Everybody Knew But Me
EXTD=1997c YEAR: 2004
EXTT0=Georgia White (1-6)
EXTT1=
EXTT2=
EXTT3=
EXTT4=
EXTT5=
EXTT6=Rhubarb Red (7-10)
EXTT7=
EXTT8=
EXTT9=
EXTT10=Terry Shand Orch (11-12)
EXTT11=
EXTT12=Les Paul and His Trio (13-20)
EXTT13=
EXTT14=
EXTT15=
EXTT16=
EXTT17=
EXTT18=
EXTT19=
EXTT20=Bing Crosby (21-22)
EXTT21=
EXTT22=Helen Forrest (23-24)
EXTT23=
EXTT24=
EXTT25=
PLAYORDER=
